<svg xmlns="http://www.w3.org/2000/svg" xmlns:xlink="http://www.w3.org/1999/xlink" width="259.569" height="78.388" viewBox="0 0 259.569 78.388">
  <defs>
    <clipPath id="clip-path">
      <path id="Path_32" data-name="Path 32" d="M149.366,3.176a111.925,111.925,0,0,0-4.263,12.9c6.791-1.381,13.248-.517,19.931.885,6.665,1.4,12.718.45,19.588.073a79.6,79.6,0,0,1,18.889,1.271c-6.4,5.168-15.8,8.2-19.852,10.617-6.52,3.9-11.64,9.608-18,13.632-5.091,3.219-10.919,4.94-16.192,7.8-.763.412-8.52,4.223-8.487,5.03a131.29,131.29,0,0,0,2.981,23,158.023,158.023,0,0,1,21.754-4.652c1.889-2.466,5.838-6.83,9.071-8.43A28.618,28.618,0,0,0,187.7,53.091c1.03-1.991,1.7-4.143,2.646-6.175,2.345-5.057,5.4-7.265,9.9-9.967,3.59-2.154,6.339-5.845,9.225-8.855-.007,3.385-1.063,5.94-2.087,8.928-1.671,4.883-1.6,10.666-1.02,15.747.347,3.042.987,6.058,1.075,9.119a16.408,16.408,0,0,1-1.06,6.644,21.345,21.345,0,0,1-2.334,4.149,119.31,119.31,0,0,1,13.775,1.975L228.263,0Z" transform="translate(-140.98)" fill="#fff"/>
    </clipPath>
    <clipPath id="clip-path-2">
      <rect id="Rectangle_15" data-name="Rectangle 15" width="87.316" height="78.388" fill="#fff"/>
    </clipPath>
    <clipPath id="clip-path-3">
      <path id="Path_28" data-name="Path 28" d="M199.427,39.248a22.978,22.978,0,0,0-4.277,5.887c-1.567,3.175-2,6.774-3.581,9.934-1.806,3.6-5.076,5.734-8.255,8.031-.947.684-4.38,3.429-5.405,5.647,5.808-.406,11.566-.265,17.379-.319,3.887-1.4,5.8-3.92,6.18-8.666.219-2.755,0-5.525.021-8.29.033-3.71-.132-6.94.821-10.5a46.513,46.513,0,0,1,2.086-6.217c-1.215,1.237-3.722,3.213-4.969,4.491M180,17.327c-4.525.444-8.475,1.124-13.032,1.229-3.836.088-7.533-.9-11.5-1.347a28.2,28.2,0,0,0-11.77,1.163,131.631,131.631,0,0,0-2.753,22.567,67.57,67.57,0,0,1,9.641-3.3A32.037,32.037,0,0,0,165.4,30.367a61.944,61.944,0,0,1,16.882-9.911c3.608-1.443,7.352-2.5,10.7-3.534a35.715,35.715,0,0,0-4.289-.259,87.017,87.017,0,0,0-8.689.664" transform="translate(-140.943 -16.663)" fill="#fff"/>
    </clipPath>
    <clipPath id="clip-path-4">
      <rect id="Rectangle_10" data-name="Rectangle 10" width="63.453" height="52.084" fill="#fff"/>
    </clipPath>
  </defs>
  <g id="Group_63" data-name="Group 63" transform="translate(-182 -39)">
    <g id="Group_62" data-name="Group 62" transform="translate(0.203)">
      <path id="Path_17" data-name="Path 17" d="M0,70.272H5.767V47.251L17.449,65.189,29.032,47.2v23.07H34.8V36.206H29.618L17.449,55.316,5.231,36.206H0Z" transform="translate(181.797 47.04)" fill="#fff"/>
      <path id="Path_18" data-name="Path 18" d="M63.825,70.272,49.6,36.207H44.42L30.2,70.272h6.451l2.786-6.795H54.588l2.786,6.795ZM52.681,58.445H41.342l5.669-13.88Z" transform="translate(188.502 47.04)" fill="#fff"/>
      <path id="Path_19" data-name="Path 19" d="M83.853,47.007a10.828,10.828,0,0,0-11.046-10.8H59.562V70.272h6.109V58.151h6.06l7.283,12.122h6.891L77.645,56.685a10.257,10.257,0,0,0,6.208-9.679m-6.061.1a5.35,5.35,0,0,1-5.62,5.573h-6.5V41.73H72.66a5.1,5.1,0,0,1,5.131,5.376" transform="translate(195.023 47.04)" fill="#fff"/>
      <rect id="Rectangle_3" data-name="Rectangle 3" width="6.109" height="34.066" transform="translate(283.093 83.246)" fill="#fff"/>
      <path id="Path_20" data-name="Path 20" d="M90.249,70.272h5.914v-24.1l18.427,24.1h4.985V36.206h-5.914V59.862L95.625,36.206H90.249Z" transform="translate(201.837 47.04)" fill="#fff"/>
      <path id="Path_21" data-name="Path 21" d="M116.6,70.272h22.042V64.75H122.713V55.365h14.613V49.842H122.713V41.729H138.3V36.206H116.6Z" transform="translate(207.69 47.04)" fill="#fff"/>
      <path id="Path_22" data-name="Path 22" d="M23.354,11.864c0-5.382-4.492-9.3-10.188-9.3H0V38.979H14.942c6.374,0,11.077-4.6,11.077-10.763,0-4.545-2.508-8.149-7.315-9.038,2.927-1.1,4.65-3.813,4.65-7.314m-6.374.888a4.419,4.419,0,0,1-4.7,4.494H6.531V8.468h5.8a4.364,4.364,0,0,1,4.65,4.285m2.561,15.1c0,2.978-2.405,5.224-5.7,5.224H6.531V22.73h7.263c3.4,0,5.747,2.195,5.747,5.12" transform="translate(181.797 39.569)" fill="#fff"/>
      <path id="Path_23" data-name="Path 23" d="M49.833,14.111A11.576,11.576,0,0,0,38.025,2.563H23.865V38.979H30.4V26.023h6.478L44.66,38.979h7.368L43.2,24.456a10.962,10.962,0,0,0,6.636-10.345m-6.478.1a5.719,5.719,0,0,1-6.009,5.956H30.4V8.468h7.472a5.454,5.454,0,0,1,5.486,5.747" transform="translate(187.096 39.569)" fill="#fff"/>
      <rect id="Rectangle_4" data-name="Rectangle 4" width="6.529" height="36.416" transform="translate(241.182 42.132)" fill="#fff"/>
      <path id="Path_24" data-name="Path 24" d="M65.309,38.979h6.531V8.468h9.874v-5.9H55.434v5.9h9.874Z" transform="translate(194.106 39.569)" fill="#fff"/>
      <rect id="Rectangle_5" data-name="Rectangle 5" width="6.531" height="36.416" transform="translate(277.646 42.132)" fill="#fff"/>
      <path id="Path_25" data-name="Path 25" d="M85.623,31.413c2.247,5.017,7.054,8.308,14,8.308,8.568,0,12.749-4.6,12.749-10.763,0-5.591-3.083-8.411-9.719-11.077-5.328-2.195-8.254-2.769-8.254-6.113,0-2.246,2.09-3.865,4.963-3.865,3.136,0,5.173,1.2,6.479,3.238l4.65-3.187a12.6,12.6,0,0,0-11.233-5.9c-6.165,0-11.286,3.813-11.286,9.823,0,6.426,4.6,8.829,10.45,11.023,4.441,1.673,7.419,2.927,7.419,6.218,0,1.777-1.1,4.754-6.165,4.754a9.8,9.8,0,0,1-9.143-5.538Z" transform="translate(200.81 39.455)" fill="#fff"/>
      <path id="Path_26" data-name="Path 26" d="M109.4,38.979h6.531v-16.3h17.5v16.3h6.479V2.563h-6.479V16.774h-17.5V2.563H109.4Z" transform="translate(206.09 39.569)" fill="#fff"/>
      <g id="Group_20" data-name="Group 20" transform="translate(354.083 39)" clip-path="url(#clip-path)">
        <g id="Group_19" data-name="Group 19" transform="translate(-0.033 0)">
          <g id="Group_18" data-name="Group 18">
            <g id="Group_17" data-name="Group 17" clip-path="url(#clip-path-2)">
              <rect id="Rectangle_14" data-name="Rectangle 14" width="87.988" height="78.603" transform="translate(-0.382 -0.155)" fill="#fff"/>
            </g>
          </g>
        </g>
      </g>
      <g id="Group_11" data-name="Group 11" transform="translate(354.038 59.363)" clip-path="url(#clip-path-3)">
        <g id="Group_10" data-name="Group 10" transform="translate(0 0)">
          <g id="Group_9" data-name="Group 9">
            <g id="Group_8" data-name="Group 8" clip-path="url(#clip-path-4)">
              <rect id="Rectangle_9" data-name="Rectangle 9" width="63.938" height="52.793" transform="translate(-0.37 -0.574)" fill="#fff"/>
            </g>
          </g>
        </g>
      </g>
    </g>
  </g>
</svg>
