<?xml version="1.0" encoding="utf-8"?>
<svg version="1.1" xmlns="http://www.w3.org/2000/svg" xmlns:xlink="http://www.w3.org/1999/xlink" x="0px" y="0px" viewBox="96 430 850 145" xml:space="preserve">
<g transform="translate(0 128)">
<path fill="#ffffff" d="m145.95 319.33c-0.11-0.01-0.3-0.01-0.42 0.01s-0.29 0.05-0.38 0.08c-0.08 0.03-0.23 0.09-0.32 0.13-0.08 0.04-0.25 0.15-0.37 0.24-0.11 0.09-0.29 0.28-0.39 0.42s-0.23 0.36-0.28 0.48c-0.05 0.13-0.09 0.26-0.09 0.31 0 0.04-0.02 0.1-0.04 0.13-0.02 0.04-0.26 0.08-0.69 0.13-0.36 0.04-0.87 0.11-1.13 0.16-0.26 0.04-0.7 0.13-0.96 0.18-0.26 0.06-0.71 0.18-1 0.26-0.28 0.08-0.7 0.21-0.92 0.29-0.21 0.07-0.56 0.2-0.75 0.28-0.2 0.09-0.59 0.27-0.87 0.41-0.29 0.14-0.68 0.35-0.88 0.47-0.21 0.12-0.57 0.35-0.81 0.52s-0.64 0.48-0.88 0.68c-0.24 0.21-0.62 0.57-0.85 0.8-0.22 0.23-0.55 0.61-0.73 0.83s-0.48 0.63-0.66 0.91c-0.18 0.27-0.43 0.69-0.56 0.94-0.13 0.24-0.34 0.66-0.46 0.93-0.12 0.28-0.28 0.66-0.34 0.84-0.07 0.19-0.18 0.51-0.25 0.72-0.06 0.21-0.16 0.57-0.21 0.8-0.06 0.23-0.14 0.62-0.19 0.86-0.04 0.24-0.11 0.64-0.15 0.9l-0.07 0.46-0.01 6.55-0.01 6.55 0.08 0.02 0.08 0.03v5.43h30.91l-0.01-9.29-0.02-9.29-0.07-0.46c-0.03-0.26-0.1-0.66-0.15-0.9-0.04-0.24-0.13-0.65-0.19-0.91-0.07-0.25-0.2-0.69-0.29-0.98-0.09-0.28-0.21-0.64-0.28-0.8-0.06-0.16-0.2-0.48-0.3-0.7s-0.28-0.59-0.4-0.8c-0.12-0.22-0.37-0.63-0.55-0.9-0.18-0.28-0.48-0.69-0.66-0.92s-0.58-0.66-0.87-0.96c-0.3-0.3-0.74-0.69-0.97-0.88-0.23-0.18-0.64-0.48-0.91-0.66-0.28-0.18-0.69-0.43-0.91-0.55-0.22-0.13-0.62-0.32-0.88-0.44s-0.68-0.29-0.92-0.38-0.64-0.23-0.89-0.3c-0.25-0.08-0.7-0.21-1.01-0.28-0.31-0.08-0.83-0.19-1.15-0.24-0.32-0.06-0.88-0.14-1.25-0.18s-0.67-0.08-0.68-0.09c0-0.01-0.03-0.12-0.05-0.25-0.03-0.13-0.1-0.34-0.16-0.46s-0.22-0.33-0.37-0.48c-0.19-0.19-0.34-0.31-0.56-0.41-0.16-0.08-0.39-0.16-0.5-0.18s-0.29-0.05-0.4-0.06zm194.9 2.44c-19.01 0-34.47 15.46-34.47 34.47s15.46 34.47 34.47 34.47 34.47-15.46 34.47-34.47c0-8.89-3.38-17-8.93-23.12-0.76-0.85-1.57-1.66-2.42-2.43-6.12-5.54-14.23-8.92-23.12-8.92zm-107.56 1.2v68.95h15.3v-27.63h26.77v-13.27h-26.77v-14.78h32.1v-13.27h-32.1-15.3zm190.55 0h-15.31v68.95h15.31v-22.94h10.14l18.18 22.94h17.34l-19.29-24.36c9.08-3.16 15.55-11.32 15.55-21.59 0-11.49-8.12-20.36-18.93-22.5-1.64-0.32-3.35-0.5-5.09-0.5h-17.9zm75.35 0v68.96h15.3 32.11v-13.27h-32.11v-14.37h26.78v-13.26h-26.78v-14.79h32.11v-13.27h-32.11-15.3zm79.11 0v68.94h15.31v0.01h33.35v-13.27h-33.35v-55.68h-15.31zm175.34 0v68.94h15.31v-39.32l49.05 39.33v-0.01-68.94h-15.3v39.33l-49.06-39.33zm113.75 0h-15.28v55.59 13.25h30.48c18.97 0 34.41-14.88 34.41-34.42s-15.44-34.42-34.41-34.42h-15.2zm-179.73 0.09l-8.65 15.57-29.64 53.38h18.36l20.46-36.85 20.47 36.85h17.29l-29.11-52.42-9.18-16.53zm-551.35 11.49h9.5 9.51v12.06h-19.01v-12.06zm731.08 1.66h15.2c10.55 0 19.13 10.07 19.13 21.18s-8.58 21.17-19.13 21.17h-15.2v-42.35zm-443.55 0.03h17.9c4.8 0 8.71 4.93 8.71 9.73 0 4.11-2.85 8.3-6.68 9.43-0.66 0.2-1.33 0.31-2.03 0.31h-17.9v-19.47zm-82.99 0.39c10.81 0 19.61 8.8 19.61 19.61s-8.8 19.6-19.61 19.6-19.61-8.79-19.61-19.6 8.8-19.61 19.61-19.61zm-172.03 19.65h-23.01-23v4.71l9.56 0.01 9.55 0.01-8.04 4.59-8.03 4.59v2.84 2.83l-0.8 4.63c-0.44 2.55-0.79 4.64-0.79 4.64 0.01 0.01 9.26-5.42 20.57-12.06l20.57-12.08h3.42v-4.71zm-3.07 14.25c-0.02 0-9.78 5.62-21.7 12.49-11.91 6.86-21.66 12.48-21.66 12.48-0.01 0-0.66 3.65-1.45 8.11s-1.43 8.11-1.42 8.12c0 0.01 10.7-6.33 23.78-14.07 13.07-7.74 23.78-14.08 23.78-14.08 0-0.01-0.29-1.74-0.65-3.86l-0.65-3.86v-2.66c0-1.47-0.02-2.67-0.03-2.67zm2.88 21.57c-0.02 0-11.46 6.74-25.43 14.99s-25.4 15-25.41 15.01-0.24 1.2-0.51 2.64c-0.27 1.45-0.5 2.65-0.5 2.66 0 0.02-2.2 0.03-4.89 0.03h-4.89v21.25h29.19v-3.04c0-1.86 0.02-3.19 0.04-3.43 0.03-0.21 0.08-0.56 0.12-0.78 0.05-0.22 0.16-0.63 0.26-0.92 0.09-0.29 0.25-0.69 0.35-0.9 0.09-0.21 0.28-0.55 0.41-0.76 0.12-0.21 0.35-0.54 0.5-0.74s0.45-0.55 0.67-0.76c0.21-0.22 0.53-0.51 0.7-0.65 0.18-0.14 0.48-0.36 0.68-0.49s0.58-0.34 0.84-0.47c0.27-0.13 0.63-0.29 0.82-0.36 0.19-0.06 0.51-0.16 0.72-0.22 0.21-0.05 0.55-0.13 0.76-0.17 0.31-0.05 0.73-0.07 2.47-0.08 1.39-0.01 2.25 0 2.54 0.03 0.24 0.02 0.62 0.08 0.84 0.12 0.22 0.05 0.64 0.17 0.95 0.27 0.3 0.1 0.77 0.29 1.03 0.42 0.27 0.14 0.68 0.37 0.9 0.52 0.23 0.15 0.6 0.44 0.84 0.64 0.24 0.21 0.54 0.5 0.67 0.65 0.14 0.15 0.33 0.39 0.44 0.53 0.11 0.15 0.28 0.38 0.37 0.51 0.09 0.14 0.27 0.43 0.38 0.66 0.12 0.23 0.29 0.59 0.38 0.82 0.09 0.22 0.22 0.61 0.28 0.86 0.07 0.25 0.15 0.62 0.19 0.83 0.06 0.33 0.07 0.76 0.09 3.64l0.01 3.27h29.18v-21.25h-4.89c-2.69 0-4.89-0.02-4.89-0.04 0-0.01-0.61-3.47-1.36-7.67-0.74-4.2-1.36-7.65-1.37-7.66s-5.87 3.44-13.03 7.67l-13.01 7.7h-7.8c-5.08 0-7.8-0.02-7.77-0.04 0.02-0.02 9.07-5.36 20.1-11.86 11.04-6.51 20.07-11.83 20.07-11.83 0.01-0.01-0.44-2.62-0.99-5.81-0.58-3.36-1.02-5.79-1.05-5.79zm489.73 19.98v27.29h1.84v-27.29h-1.84zm-207.85 0.44c-0.45 0-0.78 0.15-1.07 0.44-0.29 0.3-0.44 0.67-0.44 1.07 0 0.44 0.15 0.77 0.44 1.07 0.29 0.29 0.62 0.4 1.07 0.4 0.4 0 0.77-0.15 1.06-0.44 0.3-0.29 0.44-0.62 0.44-1.07 0-0.4-0.14-0.73-0.44-1.03-0.29-0.29-0.66-0.44-1.06-0.44zm86.82 0.92c-2.54 0-4.82 0.59-6.84 1.69-2.02 1.14-3.6 2.69-4.78 4.67-1.18 1.99-1.73 4.23-1.73 6.7 0 2.5 0.55 4.7 1.73 6.69 1.18 1.98 2.76 3.56 4.78 4.67 2.02 1.14 4.3 1.69 6.84 1.69 1.84 0 3.53-0.3 5.11-0.92 1.58-0.59 2.94-1.51 4.04-2.68l-1.17-1.22c-2.1 2.06-4.75 3.09-7.91 3.09-2.17 0-4.12-0.48-5.88-1.47-1.77-0.96-3.16-2.32-4.16-4.05-1.03-1.72-1.5-3.67-1.5-5.8 0-2.14 0.47-4.05 1.5-5.78 1-1.73 2.39-3.09 4.16-4.08 1.76-0.96 3.71-1.47 5.88-1.47 3.2 0 5.85 1.03 7.91 3.05l1.17-1.21c-1.1-1.18-2.46-2.06-4-2.65-1.58-0.59-3.31-0.92-5.15-0.92zm-168.24 0.19v25.74h1.84v-21.96l10.78 18.54h0.91l10.78-18.61 0.04 22.03h1.83l-0.03-25.74h-1.55l-11.51 19.89-11.51-19.89h-1.58zm302.42 2.35v4.19h-3.53v1.58h3.53v12.54c0 1.66 0.44 2.94 1.36 3.86 0.88 0.92 2.17 1.36 3.86 1.36 0.74 0 1.47-0.11 2.17-0.33s1.29-0.59 1.76-1.03l-0.77-1.28c-0.81 0.73-1.8 1.06-2.98 1.06-1.17 0-2.09-0.29-2.68-0.96-0.59-0.66-0.88-1.61-0.88-2.86v-12.36h6.1v-1.58h-6.1v-4.19h-1.84zm-257.97 4.04c-1.47 0-2.9 0.26-4.23 0.74-1.36 0.48-2.5 1.14-3.45 1.98l0.92 1.33c0.81-0.74 1.76-1.32 2.94-1.77 1.18-0.44 2.39-0.66 3.67-0.66 1.84 0 3.28 0.48 4.23 1.4 0.96 0.96 1.47 2.32 1.47 4.08v1.55h-6.58c-2.5 0-4.34 0.51-5.48 1.5s-1.69 2.28-1.69 3.86c0 1.66 0.59 2.98 1.84 3.97 1.25 1.03 2.94 1.51 5.08 1.51 1.61 0 3.05-0.29 4.22-0.92 1.18-0.62 2.06-1.5 2.69-2.64v3.42h1.76v-12.18c0-2.35-0.66-4.11-1.91-5.33-1.29-1.21-3.12-1.84-5.48-1.84zm27.53 0c-1.8 0-3.31 0.41-4.56 1.14-1.25 0.74-2.17 1.81-2.75 3.2v-4.19h-1.77v19.2h1.84v-10.01c0-2.35 0.59-4.23 1.8-5.55 1.18-1.32 2.87-2.02 5-2.02l0.44 0.04v-1.81zm30.96 0c-1.8 0-3.34 0.41-4.67 1.14-1.32 0.78-2.28 1.84-2.94 3.17v-4.16h-1.76v19.2h1.84v-10.23c0-2.28 0.62-4.08 1.94-5.44 1.29-1.32 3.06-2.02 5.34-2.02 1.94 0 3.45 0.59 4.56 1.69 1.1 1.14 1.65 2.79 1.65 4.93v11.07h1.84v-11.22c0-2.61-0.7-4.63-2.1-6.03-1.39-1.4-3.31-2.1-5.7-2.1zm26.17 0c-1.8 0-3.42 0.44-4.82 1.25-1.44 0.85-2.54 1.99-3.35 3.46s-1.17 3.16-1.17 5.04c0 1.91 0.4 3.57 1.25 5.04 0.84 1.47 2.02 2.64 3.53 3.45 1.5 0.85 3.2 1.25 5.15 1.25 1.47 0 2.83-0.25 4.11-0.77 1.22-0.51 2.28-1.29 3.13-2.35l-1.07-1.22c-0.73 0.92-1.62 1.58-2.68 2.03-1.07 0.44-2.24 0.66-3.46 0.66-1.98 0-3.64-0.52-5.04-1.55-1.39-1.03-2.35-2.42-2.79-4.19l16.22-3.16c-0.12-1.69-0.52-3.2-1.33-4.56s-1.87-2.43-3.2-3.2c-1.32-0.77-2.83-1.18-4.48-1.18zm64.1 0c-1.84 0-3.46 0.44-4.93 1.25-1.47 0.85-2.61 2.03-3.42 3.5-0.84 1.47-1.25 3.16-1.25 5 0 1.87 0.41 3.57 1.25 5.04 0.81 1.47 1.95 2.64 3.42 3.45 1.47 0.85 3.09 1.25 4.93 1.25 1.8 0 3.42-0.4 4.89-1.25 1.47-0.81 2.61-1.98 3.46-3.45 0.81-1.47 1.25-3.17 1.25-5.04 0-1.84-0.44-3.53-1.25-5-0.85-1.47-1.99-2.65-3.46-3.5-1.47-0.81-3.09-1.25-4.89-1.25zm28.09 0c-1.81 0-3.35 0.41-4.67 1.14-1.33 0.78-2.28 1.84-2.94 3.17v-4.16h-1.77v19.2h1.84v-10.23c0-2.28 0.63-4.08 1.95-5.44 1.29-1.32 3.05-2.02 5.33-2.02 1.95 0 3.46 0.59 4.56 1.69 1.1 1.14 1.65 2.79 1.65 4.93v11.07h1.84v-11.22c0-2.61-0.7-4.63-2.09-6.03-1.4-1.4-3.31-2.1-5.7-2.1zm23.99 0c-2.35 0-4.15 0.52-5.4 1.51s-1.88 2.24-1.88 3.75c0 1.25 0.33 2.25 1 2.94 0.66 0.74 1.43 1.25 2.38 1.55 0.92 0.33 2.14 0.62 3.68 0.88 1.29 0.26 2.32 0.48 3.05 0.7 0.74 0.22 1.33 0.59 1.84 1.03 0.52 0.48 0.77 1.1 0.77 1.91 0 1.14-0.47 2.02-1.39 2.65-0.92 0.66-2.36 0.95-4.27 0.95-1.36 0-2.64-0.22-3.89-0.66s-2.25-0.99-3.02-1.65l-0.85 1.47c0.78 0.73 1.88 1.32 3.28 1.76 1.39 0.48 2.86 0.7 4.41 0.7 2.39 0 4.26-0.48 5.59-1.43 1.32-0.96 1.98-2.21 1.98-3.83 0-1.17-0.33-2.13-0.95-2.83-0.66-0.66-1.44-1.17-2.36-1.47-0.92-0.29-2.13-0.59-3.6-0.88-1.36-0.26-2.43-0.52-3.16-0.74-0.74-0.22-1.36-0.58-1.88-1.06-0.51-0.48-0.77-1.14-0.77-2.02 0-1.07 0.44-1.95 1.36-2.62 0.88-0.66 2.24-0.99 4.05-0.99 1.03 0 2.06 0.15 3.09 0.44 0.99 0.3 1.87 0.74 2.68 1.29l0.84-1.47c-0.77-0.55-1.76-0.99-2.94-1.36-1.21-0.33-2.42-0.52-3.64-0.52zm81.33 0c-1.47 0-2.9 0.26-4.23 0.74-1.36 0.48-2.5 1.14-3.45 1.98l0.92 1.33c0.8-0.74 1.76-1.32 2.94-1.77 1.17-0.44 2.39-0.66 3.67-0.66 1.84 0 3.28 0.48 4.23 1.4 0.96 0.96 1.47 2.32 1.47 4.08v1.55h-6.58c-2.5 0-4.34 0.51-5.48 1.5s-1.69 2.28-1.69 3.86c0 1.66 0.59 2.98 1.84 3.97 1.25 1.03 2.94 1.51 5.07 1.51 1.62 0 3.06-0.29 4.23-0.92 1.18-0.62 2.06-1.5 2.69-2.64v3.42h1.76v-12.18c0-2.35-0.66-4.11-1.91-5.33-1.29-1.21-3.13-1.84-5.48-1.84zm27.83 0c-1.81 0-3.35 0.41-4.67 1.14-1.33 0.78-2.28 1.84-2.95 3.17v-4.16h-1.76v19.2h1.84v-10.23c0-2.28 0.62-4.08 1.95-5.44 1.28-1.32 3.05-2.02 5.33-2.02 1.95 0 3.45 0.59 4.56 1.69 1.1 1.14 1.65 2.79 1.65 4.93v11.07h1.84v-11.22c0-2.61-0.7-4.63-2.1-6.03-1.39-1.4-3.3-2.1-5.69-2.1zm26.53 0c-1.88 0-3.53 0.44-5 1.25s-2.65 1.99-3.46 3.46c-0.85 1.47-1.25 3.16-1.25 5.04 0 1.87 0.4 3.57 1.25 5.04 0.81 1.47 1.99 2.64 3.46 3.45 1.47 0.85 3.12 1.25 5 1.25 1.54 0 2.94-0.29 4.19-0.88s2.28-1.47 3.09-2.65l-1.36-0.99c-0.7 0.96-1.55 1.69-2.58 2.17s-2.13 0.7-3.34 0.7c-1.51 0-2.87-0.33-4.05-0.99-1.18-0.67-2.13-1.62-2.79-2.87-0.67-1.22-1-2.61-1-4.23 0-1.58 0.33-2.98 1-4.23 0.66-1.21 1.61-2.17 2.79-2.83s2.54-1.03 4.05-1.03c1.21 0 2.31 0.26 3.34 0.73 1.03 0.48 1.88 1.18 2.58 2.14l1.36-1c-0.81-1.14-1.84-2.02-3.09-2.61-1.25-0.58-2.65-0.92-4.19-0.92zm-300.48 0.15v19.2h1.83v-19.2h-1.83zm180.47 0v11.22c0 2.64 0.7 4.63 2.13 6.03 1.4 1.39 3.38 2.09 5.88 2.09 1.69 0 3.16-0.37 4.41-1.1 1.25-0.74 2.17-1.8 2.84-3.16v4.12h1.76v-19.2h-1.84v10.22c0 2.28-0.66 4.12-1.91 5.45-1.25 1.36-2.98 2.02-5.11 2.02-2.02 0-3.57-0.55-4.67-1.69-1.1-1.11-1.66-2.76-1.66-4.93v-11.07h-1.83zm132.09 0l8.64 19.12-1.03 2.32c-0.58 1.25-1.17 2.13-1.83 2.65-0.67 0.51-1.48 0.77-2.39 0.77-1.4 0-2.62-0.48-3.57-1.51l-0.92 1.4c0.51 0.59 1.18 0.99 1.95 1.29 0.77 0.29 1.62 0.44 2.5 0.44 1.32 0 2.46-0.33 3.42-1.07 0.95-0.7 1.84-1.91 2.57-3.6l9.86-21.81h-1.88l-7.68 17.17-7.69-17.17h-1.95zm-263.95 1.47c1.25 0 2.42 0.3 3.45 0.85s1.84 1.32 2.5 2.24c0.63 0.96 1.03 2.02 1.22 3.16l-14.64 2.87c-0.07-0.48-0.07-0.84-0.07-1.14 0-1.51 0.29-2.9 0.96-4.12 0.62-1.21 1.5-2.17 2.68-2.83 1.14-0.66 2.43-1.03 3.9-1.03zm64.1 0.04c1.47 0 2.76 0.37 3.93 1.03 1.18 0.7 2.1 1.65 2.76 2.87 0.66 1.25 1.03 2.64 1.03 4.19 0 1.58-0.37 2.98-1.03 4.19-0.66 1.25-1.58 2.21-2.76 2.87-1.17 0.7-2.46 1.03-3.93 1.03s-2.8-0.33-3.97-1.03c-1.18-0.66-2.1-1.62-2.76-2.87-0.66-1.21-0.99-2.61-0.99-4.19 0-1.55 0.33-2.94 0.99-4.19 0.66-1.22 1.58-2.17 2.76-2.87 1.17-0.66 2.5-1.03 3.97-1.03zm-149.75 8.42h6.54v3.6c-0.58 1.4-1.43 2.47-2.53 3.2-1.11 0.74-2.47 1.1-4.05 1.1-1.69 0-3.01-0.33-3.93-1.06-0.96-0.74-1.4-1.73-1.4-2.98 0-1.18 0.41-2.13 1.25-2.83 0.85-0.66 2.21-1.03 4.12-1.03zm282.17 0h6.54v3.6c-0.58 1.4-1.43 2.47-2.53 3.2-1.11 0.74-2.47 1.1-4.05 1.1-1.69 0-3.01-0.33-3.93-1.06-0.96-0.74-1.4-1.73-1.4-2.98 0-1.18 0.4-2.13 1.25-2.83 0.85-0.66 2.21-1.03 4.12-1.03z" />
</g>
</svg>