<?xml version="1.0" encoding="utf-8"?>
<svg version="1.1" xmlns="http://www.w3.org/2000/svg" xmlns:xlink="http://www.w3.org/1999/xlink" x="0px" y="0px" viewBox="0 0 200 200" enable-background="new 0 0 200 200" xml:space="preserve">
<path fill="#ffffff" d="m100.13 40.004c-0.10187-0.0089-0.27643-0.0036-0.38867 0.01173-0.11224 0.01484-0.27202 0.04788-0.35351 0.07426-0.07791 0.0263-0.20974 0.08075-0.29102 0.12109-0.08146 0.04042-0.23717 0.13969-0.3457 0.22266-0.10854 0.08297-0.27422 0.25827-0.36719 0.38867-0.09298 0.13039-0.20844 0.33169-0.25586 0.44727-0.04744 0.11558-0.08715 0.24245-0.08786 0.2832-0.000728 0.04077-0.01421 0.096-0.03127 0.12304-0.02034 0.03225-0.24083 0.07329-0.63868 0.11914-0.33413 0.03855-0.80829 0.10463-1.0527 0.14649-0.24449 0.04184-0.64418 0.11853-0.88867 0.17188-0.24449 0.05295-0.66092 0.16049-0.92578 0.23828-0.26486 0.07746-0.64782 0.1972-0.85156 0.26758-0.20374 0.07-0.52172 0.19005-0.70508 0.26562-0.18337 0.0756-0.54624 0.24498-0.80664 0.375-0.26079 0.13003-0.62701 0.32712-0.81445 0.4375-0.18781 0.11076-0.52588 0.32926-0.75 0.48633-0.22412 0.15706-0.59157 0.4412-0.8164 0.63086-0.22486 0.18966-0.57856 0.52195-0.78712 0.73828-0.20855 0.21633-0.5157 0.5633-0.68164 0.77148-0.16632 0.20782-0.43767 0.58691-0.60547 0.84179-0.16743 0.25448-0.40584 0.64503-0.52734 0.86914-0.12151 0.22411-0.31196 0.61623-0.42383 0.87109-0.11187 0.25448-0.25501 0.60398-0.31836 0.77734-0.06298 0.17298-0.16302 0.47351-0.22265 0.66797-0.05996 0.1941-0.15126 0.52881-0.20313 0.74218-0.05188 0.213-0.12844 0.5708-0.16992 0.79492-0.04184 0.22411-0.10422 0.59949-0.13868 0.83398l-0.06449 0.42578-0.01173 6.0781-0.01368 6.0801 0.07622 0.01954 0.07418 0.01954v5.0449h28.674l-0.0117-8.6211-0.0117-8.6211-0.0645-0.42773c-0.0348-0.23449-0.0968-0.60792-0.13867-0.83203-0.0418-0.22412-0.12433-0.60362-0.1836-0.8418-0.0593-0.23855-0.17726-0.64546-0.26171-0.90625-0.0848-0.26078-0.20245-0.59799-0.26172-0.74805-0.0593-0.15003-0.18484-0.4421-0.2793-0.64843-0.0941-0.20633-0.26265-0.54239-0.37305-0.7461-0.11076-0.20374-0.33843-0.57755-0.50586-0.83203-0.16781-0.25486-0.44362-0.63978-0.61328-0.85351-0.16965-0.21412-0.53574-0.6155-0.81249-0.89258-0.27708-0.27672-0.67845-0.64086-0.89258-0.81055-0.21374-0.16966-0.5967-0.44584-0.85157-0.61328-0.25448-0.16743-0.6324-0.39957-0.83985-0.51367-0.20744-0.11446-0.57531-0.29623-0.81835-0.40625-0.24263-0.10966-0.62472-0.26868-0.84961-0.35351-0.22449-0.08448-0.59768-0.21246-0.82813-0.28321-0.2304-0.07071-0.65275-0.18548-0.93944-0.25586-0.28671-0.07036-0.76421-0.17116-1.0606-0.22265-0.29598-0.05152-0.81783-0.12479-1.1602-0.16407-0.34266-0.03891-0.62642-0.07728-0.63086-0.08395-0.004-0.0071-0.0283-0.11054-0.0528-0.23242-0.0241-0.12187-0.0881-0.31549-0.14257-0.42773-0.0563-0.11594-0.20558-0.30873-0.34376-0.44727-0.17447-0.17485-0.32256-0.28286-0.52148-0.37696-0.15262-0.07222-0.36103-0.14844-0.46289-0.16992-0.10188-0.02114-0.26728-0.04584-0.36914-0.05472zm-8.944 14.125h17.634v11.187h-17.634zm-12.524 20.152v4.3711l8.8633 0.0098 8.8633 0.008-7.4551 4.2598-7.4551 4.2617v5.2598l-0.74024 4.2949c-0.40637 2.3627-0.73331 4.3003-0.72851 4.3047 0.0044 0.004 8.5919-5.0334 19.082-11.195l19.078-11.203h3.1699v-4.372h-21.34zm39.832 13.225c-0.0152 0.000373-9.0719 5.2117-20.125 11.58-11.052 6.3685-20.098 11.581-20.102 11.584-0.0036 0.003-0.60515 3.3892-1.3379 7.5254-0.73234 4.1359-1.3279 7.524-1.3242 7.5293 0.0044 0.004 9.9314-5.8677 22.063-13.051 12.13-7.1835 22.06-13.062 22.063-13.066 0.004-0.0036-0.26743-1.6161-0.60156-3.582l-0.60547-3.5742v-2.4727c0-1.3599-0.0141-2.473-0.0293-2.4727zm2.6777 20.004c-0.0211 0.00037-10.639 6.2602-23.596 13.91-12.957 7.6505-23.564 13.915-23.57 13.922-0.0071 0.007-0.22087 1.1126-0.47461 2.4551-0.25412 1.3421-0.46289 2.4516-0.46289 2.4668s-2.0411 0.0293-4.5371 0.0293h-4.535v19.71h27.078v-2.8164c0-1.7288 0.01501-2.9569 0.03909-3.1777 0.0215-0.19782 0.07258-0.52476 0.11328-0.72851 0.04077-0.20374 0.14621-0.58826 0.23438-0.85352 0.08812-0.26523 0.23384-0.64062 0.32422-0.83399 0.09039-0.19336 0.2627-0.50974 0.38086-0.70312 0.11779-0.19374 0.32835-0.50432 0.46875-0.69141 0.14039-0.18669 0.41668-0.50321 0.61523-0.70508 0.19856-0.20226 0.49521-0.47423 0.6582-0.60351 0.163-0.12892 0.4475-0.33432 0.63087-0.45508 0.18336-0.12113 0.53286-0.31543 0.77734-0.43359 0.2445-0.1178 0.58678-0.26552 0.75977-0.32813 0.17336-0.0626 0.47266-0.15592 0.66602-0.20703 0.19374-0.0507 0.50976-0.1218 0.70312-0.15625 0.29302-0.0526 0.67663-0.0651 2.2969-0.0781 1.2869-0.01 2.0838 0.00003 2.3535 0.0274 0.22411 0.023 0.5736 0.0742 0.77734 0.11524 0.20374 0.0411 0.60005 0.15116 0.88086 0.24414 0.2808 0.093 0.71398 0.27164 0.96289 0.39648 0.24894 0.12521 0.62385 0.34192 0.83203 0.48047 0.20781 0.13891 0.55731 0.40642 0.77735 0.5957 0.21966 0.1893 0.50127 0.4596 0.62499 0.59962 0.12373 0.14039 0.30793 0.36348 0.41016 0.49609 0.10224 0.13224 0.25502 0.34438 0.33985 0.4707 0.0848 0.12595 0.24507 0.4013 0.35546 0.61133 0.11076 0.20967 0.26896 0.55156 0.35157 0.75976 0.0823 0.20782 0.19865 0.56683 0.25976 0.79687 0.0611 0.23004 0.14059 0.57581 0.17579 0.76954 0.0563 0.31043 0.0647 0.70878 0.0761 3.3789l0.0137 3.0293h27.074v-19.715h-4.5371c-2.4956 0-4.5371-0.0133-4.5371-0.0293 0-0.0159-0.56741-3.218-1.2598-7.1172-0.69237-3.8988-1.2661-7.0961-1.2754-7.1055-0.009-0.009-5.4478 3.1928-12.086 7.1172l-12.072 7.1367h-7.2383c-4.7041 0-7.2291-0.0134-7.2051-0.0371 0.01963-0.0196 8.4115-4.9711 18.648-11.004 10.237-6.0326 18.616-10.971 18.619-10.975 0.004-0.004-0.4126-2.4293-0.92383-5.3887-0.53874-3.1152-0.94377-5.3687-0.96679-5.373z" />
</svg>